<?xml version="1.0" ?><!DOCTYPE svg  PUBLIC '-//W3C//DTD SVG 1.1//EN'  'http://www.w3.org/Graphics/SVG/1.1/DTD/svg11.dtd'><svg height="512px" style="enable-background:new 0 0 512 512;" version="1.1" viewBox="0 0 512 512" width="512px" xml:space="preserve" xmlns="http://www.w3.org/2000/svg" xmlns:xlink="http://www.w3.org/1999/xlink"><g id="comp_x5F_267-python"><g><path d="M477.564,199.009c-7.906-31.726-22.895-55.649-54.827-55.649h-41.172v48.668c0,37.784-32.036,69.612-68.588,69.612    H203.322c-29.982,0-54.829,25.671-54.829,55.754v104.523c0,29.773,25.874,47.228,54.829,55.752    c34.703,10.164,68.072,12.013,109.655,0c27.621-8.011,54.83-24.128,54.83-55.752v-41.789H258.255v-13.965h164.482    c31.933,0,43.739-22.28,54.827-55.649C489.064,276.117,488.552,243.056,477.564,199.009L477.564,199.009z M319.857,407.951    c11.397,0,20.638,9.345,20.638,20.845c0,11.6-9.24,20.945-20.638,20.945c-11.293,0-20.638-9.446-20.638-20.945    C299.322,417.192,308.564,407.951,319.857,407.951z M198.291,247.883h109.656c30.495,0,54.83-25.156,54.83-55.754V87.504    c0-29.774-25.054-52.055-54.83-57.087c-36.756-6.058-76.697-5.75-109.656,0.102c-46.409,8.215-54.828,25.362-54.828,57.089v41.788    h109.758v13.964H102.29c-31.931,0-59.86,19.199-68.587,55.649c-10.063,41.789-10.472,67.868,0,111.505    c7.803,32.446,26.387,55.649,58.318,55.649h37.682V316.06C129.704,279.815,161.02,247.883,198.291,247.883L198.291,247.883z     M191.411,101.468c-11.396,0-20.637-9.343-20.637-20.843c0.103-11.603,9.241-20.945,20.637-20.945    c11.295,0,20.638,9.445,20.638,20.945S202.809,101.468,191.411,101.468z"/></g></g><g id="Layer_1"/></svg>